<?xml version="1.0" standalone="no"?>
<!DOCTYPE svg PUBLIC "-//W3C//DTD SVG 20010904//EN"
 "http://www.w3.org/TR/2001/REC-SVG-20010904/DTD/svg10.dtd">
<svg version="1.0" xmlns="http://www.w3.org/2000/svg"
 width="800.000000pt" height="800.000000pt" viewBox="0 0 800.000000 800.000000"
 preserveAspectRatio="xMidYMid meet">
<metadata>
Created by potrace 1.11, written by Peter Selinger 2001-2013
</metadata>
<g transform="translate(0.000000,800.000000) scale(0.100000,-0.100000)"
fill="#000000" stroke="none">
<path d="M3902 7991 c-175 -45 -293 -237 -256 -418 7 -33 23 -82 37 -109 27
-53 109 -137 145 -148 12 -4 22 -12 22 -17 0 -6 -18 -92 -40 -192 -22 -100
-43 -195 -46 -211 -3 -16 -6 -32 -8 -35 -2 -3 -7 -22 -10 -41 -3 -19 -16 -82
-29 -140 l-23 -105 -692 -3 c-381 -1 -693 -5 -694 -10 0 -4 -2 -111 -3 -238
-1 -127 -4 -235 -7 -240 -4 -5 -75 -9 -160 -8 -96 0 -156 -4 -160 -10 -4 -6
-8 -194 -8 -417 0 -314 3 -409 13 -416 6 -5 47 -9 90 -8 42 1 77 -1 78 -4 1
-3 2 -148 3 -321 0 -173 5 -321 9 -327 6 -10 155 -13 687 -13 l679 0 -2 -57
-2 -57 -34 -3 c-19 -2 -37 -6 -40 -9 -3 -3 -6 -42 -6 -87 l0 -82 -179 -1 -179
-1 -51 48 c-60 57 -169 114 -247 129 -252 49 -499 -101 -578 -352 -16 -48 -22
-164 -12 -209 7 -30 5 -40 -10 -52 -18 -16 -292 -471 -325 -541 -14 -29 -16
-43 -7 -65 9 -26 2 -41 -84 -187 -52 -87 -99 -171 -105 -186 -5 -16 -15 -28
-21 -28 -26 0 -135 -61 -170 -95 -42 -41 -83 -116 -95 -172 l-8 -38 -119 -17
c-66 -10 -139 -16 -162 -13 -70 10 -62 17 -266 -233 -170 -209 -217 -301 -217
-432 0 -122 74 -300 125 -300 3 0 84 98 182 218 98 119 183 223 190 230 24 25
36 19 157 -82 25 -22 46 -44 46 -49 0 -9 -70 -96 -302 -380 -37 -45 -67 -90
-68 -100 0 -33 64 -51 190 -51 94 -1 125 3 172 20 107 41 163 88 301 259 45
55 89 109 99 120 108 128 120 153 95 202 -8 15 -18 69 -22 118 -4 50 -8 94 -8
98 -1 5 26 19 61 32 34 12 80 35 102 50 101 70 159 212 138 337 -9 46 -8 47
99 227 86 143 112 181 129 181 40 0 70 39 209 274 137 232 140 236 172 236
l33 0 0 -770 0 -771 21 -8 c12 -4 57 -7 100 -6 44 1 79 -2 79 -7 0 -4 -4 -8
-8 -8 -17 0 -54 -83 -57 -128 -4 -62 16 -117 59 -161 34 -35 35 -37 17 -50
-10 -8 -28 -30 -40 -51 -44 -78 -36 -171 21 -236 l31 -35 -20 -22 c-76 -82
-79 -213 -6 -289 l26 -27 -31 -35 c-17 -20 -34 -51 -38 -71 -5 -31 -11 -36
-48 -45 -113 -29 -158 -45 -233 -80 -137 -64 -239 -142 -325 -250 -74 -92
-128 -233 -128 -332 0 -39 4 -50 22 -60 31 -18 1771 -19 1788 -2 20 20 13 419
-10 550 -6 34 -5 66 2 90 21 76 -2 165 -55 217 -18 18 -17 19 8 43 70 65 75
196 10 271 l-33 38 29 36 c37 47 49 80 49 136 0 55 -30 123 -69 156 l-28 23
23 17 c34 26 64 97 64 153 0 48 -27 125 -49 138 -28 18 2 21 179 21 105 0 190
-1 190 -3 0 -2 -8 -16 -19 -30 -53 -76 -45 -183 20 -256 l28 -33 -30 -29 c-77
-73 -84 -200 -15 -281 l34 -39 -29 -29 c-35 -35 -59 -108 -52 -161 6 -48 36
-108 63 -127 20 -14 20 -14 -5 -37 -27 -25 -57 -95 -60 -138 -1 -15 4 -47 11
-70 7 -24 11 -49 9 -55 -24 -69 -42 -554 -21 -582 16 -22 129 -26 896 -27 657
-1 848 4 898 23 24 9 24 12 19 77 -13 145 -71 259 -195 385 -118 120 -276 204
-488 257 -34 8 -43 15 -47 39 -3 15 -21 48 -40 73 -32 42 -33 45 -16 56 26 16
58 83 63 129 5 54 -18 124 -53 160 l-29 31 25 24 c73 68 75 214 3 283 l-30 29
29 30 c56 60 75 124 60 198 -6 27 -21 61 -34 77 l-24 28 55 -2 c94 -4 85 -80
86 790 0 467 4 764 9 755 5 -8 66 -112 135 -230 129 -219 167 -270 207 -270
18 0 40 -30 117 -162 52 -89 101 -167 109 -175 9 -9 11 -25 6 -51 -4 -20 -7
-64 -6 -97 1 -85 54 -191 122 -245 43 -34 141 -80 171 -80 15 0 2 -172 -18
-230 -12 -33 -13 -52 -6 -71 9 -23 176 -233 285 -359 75 -86 174 -148 276
-171 113 -26 293 2 298 47 2 12 -66 102 -182 244 -102 124 -185 230 -185 236
0 17 158 144 178 144 10 0 85 -84 172 -192 205 -252 224 -273 243 -265 8 3 33
41 54 83 36 75 38 83 41 193 3 100 1 124 -18 174 -19 50 -98 181 -119 197 -4
3 -60 70 -125 150 -65 80 -128 151 -140 157 -12 8 -40 11 -66 8 -25 -2 -99 3
-165 13 l-119 17 -6 30 c-22 103 -105 207 -198 247 -31 14 -65 28 -74 31 -10
4 -18 13 -18 21 0 8 -45 90 -99 182 -87 147 -98 170 -89 190 8 18 7 33 -4 61
-19 50 -293 511 -322 543 -19 21 -21 32 -16 64 43 238 -132 495 -376 552 -165
38 -343 -11 -464 -128 l-45 -44 -105 1 c-58 1 -110 2 -116 3 -6 1 -9 29 -7 76
5 83 -7 104 -54 101 -32 -2 -40 16 -35 76 l4 39 644 0 c603 0 644 1 652 18 5
9 8 158 8 330 -1 171 1 313 4 313 3 1 37 2 76 4 39 1 76 5 83 9 17 11 16 820
-1 833 -7 5 -80 9 -163 8 -82 -1 -155 2 -160 6 -7 5 -10 91 -10 236 1 129 -3
233 -8 241 -7 9 -171 12 -758 12 -592 0 -749 3 -750 13 -1 19 -7 53 -29 152
-10 50 -21 104 -24 120 -9 50 -15 76 -20 93 -3 9 -8 31 -10 47 -3 17 -17 84
-31 150 -14 65 -25 127 -25 137 0 10 15 24 37 35 51 24 128 103 151 155 28 61
32 79 37 143 15 197 -127 367 -317 380 -34 2 -78 0 -96 -4z"/>
</g>
</svg>
